<svg xmlns="http://www.w3.org/2000/svg" viewBox="0 0 512 512"><circle cx="81.2" cy="398.9" r="10"/><path d="M461.2 93h-58.8c-13.3 0-25.5 4.7-35 12.6v-2.6V75.5c0-39.3-31.9-71.2-71.2-71.2h-66.7c-5.5 0-10 4.5-10 10v27.5c0 39.3 31.9 71.2 71.2 71.2h56.7v35 27 39.4c-2.6-0.2-5.3-0.3-8-0.3 -26.3 0-51.4 8.1-72.7 23.4 -4.5 3.2-5.5 9.5-2.3 14 3.2 4.5 9.5 5.5 14 2.3 17.8-12.9 38.9-19.6 61-19.6 5.3 0 10.6 0.4 15.8 1.2 0.4 0.1 0.9 0.2 1.3 0.2 31.1 5.2 58.6 24.3 74.2 52.4 1.8 3.3 5.2 5.2 8.8 5.2 1.6 0 3.3-0.4 4.8-1.3 4.8-2.7 6.6-8.8 3.9-13.6 -17.3-31.2-46.9-53.1-80.9-61v-32.3h48.8c30.3 0 55-24.7 55-55v-27C471.2 97.4 466.7 93 461.2 93zM347.4 93h-56.7c-28.2 0-51.2-23-51.2-51.2V24.3h56.7c28.2 0 51.2 23 51.2 51.2V93zM451.2 129.9c0 19.3-15.7 35-35 35h-48.8v-17c0-19.3 15.7-35 35-35H451.2V129.9z"/><path d="M508.7 328.8c-8.7-19.8-31.9-28.7-51.7-20 0 0-0.1 0-0.1 0.1l-65.3 30.1c-5 2.3-7.2 8.3-4.9 13.3 2.3 5 8.3 7.2 13.3 4.9l65.3-30.1c9.7-4.2 21 0.2 25.2 9.8 4.3 9.7-0.1 21-9.8 25.3l-133.7 59c-21.2 9.4-45.2 8.8-66-1.5l-48.9-24.3c-26.1-13-56.3-13.6-83-1.9l-1 0.4 -36.6-82.8 50.8-22.4c24.2-10.7 51.2-11.5 76-2.4l98.4 36.1c9 3.3 13.8 13.3 10.7 22.4 -3.2 9.2-13.2 14.2-22.5 11.1l-76.1-25.7c-5.2-1.8-10.9 1-12.7 6.3s1 10.9 6.3 12.7l76.1 25.7c4 1.3 8 2 12 2 15.7 0 30.4-9.9 35.8-25.5 6.6-19.3-3.6-40.6-22.7-47.6l-98.4-36.1c-29.7-10.9-62-9.9-91 2.9l-51.1 22.6c-2.9-4.4-7-7.8-12-9.8 -6.3-2.4-13.2-2.3-19.4 0.4L6 312.4C2.4 314 0 317.6 0 321.6V497.7c0 3.5 1.8 6.7 4.8 8.5 1.6 1 3.4 1.5 5.2 1.5 1.5 0 3.1-0.4 4.5-1.1l127.5-64.4c6.1-2.8 10.7-7.7 13.1-13.9 2-5.2 2.3-10.7 0.8-16l1.2-0.5c21.2-9.4 45.2-8.8 66 1.5l48.9 24.3c26.1 13 56.3 13.6 83 1.9l133.7-59C508.4 371.8 517.4 348.6 508.7 328.8zM136.4 421.1c-0.5 1.3-1.5 2.4-2.8 3 -0.2 0.1-0.3 0.1-0.5 0.2L20 481.5V437.7l29.6-14.5c5-2.4 7-8.4 4.6-13.4s-8.4-7-13.4-4.6L20 415.4v-87.3l59.7-26.2c1.3-0.6 2.8-0.6 4.1-0.1 1.3 0.5 2.4 1.5 3 2.8l47 106.5c0 0 0 0 0 0l2.6 5.8C136.9 418.4 137 419.8 136.4 421.1z"/></svg>